<svg width="42" height="16" xmlns="http://www.w3.org/2000/svg"><path d="M9.75 9.319a2.385 2.385 0 0 0-.695-.77 4.046 4.046 0 0 0-1.044-.552 6.747 6.747 0 0 0-1.21-.311 9.82 9.82 0 0 1-3.498-1.215c-.093-.05-.192-.155-.297-.316a.851.851 0 0 1-.158-.464c0-.544.091-1.09.274-1.637.182-.547.416-.976.7-1.285.458-.513 1.282-.962 2.473-1.345 1.19-.384 2.53-.575 4.021-.575.891 0 1.58.068 2.065.204.485.136.728.346.728.63 0 .464-.064.823-.19 1.077-.127.253-.263.422-.409.505a6.39 6.39 0 0 1-.765.339 7.749 7.749 0 0 0-1.753.854c-.204.136-.331.204-.38.204-.063 0-.093-.025-.093-.075 0-.105.11-.264.329-.477.22-.214.49-.4.812-.562.34-.179.51-.293.51-.343 0-.08-.189-.12-.566-.12-1.144 0-2.202.102-3.173.306-.97.204-1.736.473-2.296.807-.56.334-.84.674-.84 1.02 0 .217.116.37.348.46.232.09.744.24 1.536.45.791.21 1.5.45 2.124.723.897.384 1.562.782 1.995 1.197.433.414.65.878.65 1.391 0 .353-.086.707-.256 1.063-.17.355-.419.682-.747.978a4.293 4.293 0 0 1-1.132.733c-.364.155-.824.3-1.377.436-.554.136-1.154.243-1.8.32-.646.078-1.263.116-1.85.116-1.083 0-1.954-.102-2.612-.306-.66-.204-.988-.513-.988-.927 0-.186.11-.475.334-.868.222-.393.485-.657.788-.793.266-.105.523-.166.77-.181.248-.015.371.014.371.088 0 .019-.01.037-.028.056a.248.248 0 0 1-.065.046l-.074.037c-.123.05-.224.088-.301.116-.078.028-.14.056-.186.084-.046.028-.07.066-.07.116 0 .13.64.195 1.921.195 1.113 0 2.026-.04 2.737-.121a7.597 7.597 0 0 0 1.883-.436 5.269 5.269 0 0 0 1.484-.872zm8.257-.223v.622a35.248 35.248 0 0 1-1.619 1.512 6.965 6.965 0 0 1-1.169.835c-.361.198-.715.297-1.062.297-.34 0-.652-.135-.937-.404-.284-.269-.507-.621-.668-1.057a3.976 3.976 0 0 1-.241-1.387c0-.42.093-.795.278-1.123.186-.328.545-.751 1.077-1.27.63-.62 1.216-1.097 1.758-1.434.54-.337.966-.506 1.275-.506a.792.792 0 0 1 .798.816c0 .198-.102.48-.306.845a4.778 4.778 0 0 1-.687.95c-.253.27-.454.404-.603.404-.16 0-.24-.086-.24-.26a2.646 2.646 0 0 0 .018-.269c0-.074-.027-.115-.08-.125-.052-.009-.115.014-.19.07a40.72 40.72 0 0 0-1.27.914c-.23.176-.41.354-.543.533a.936.936 0 0 0-.2.566c0 .365.118.662.353.89.235.23.541.344.918.344.39 0 .859-.15 1.406-.45.547-.3 1.192-.738 1.934-1.313zm-.13.696v-.603c.334-.396.588-.733.761-1.011-.198-.068-.342-.152-.431-.25-.09-.1-.135-.248-.135-.446 0-.223.093-.504.279-.844.185-.34.414-.659.686-.956.272-.297.52-.488.742-.575a.56.56 0 0 1 .25-.065c.124 0 .186.059.186.176 0 .105-.096.319-.287.64 1.274-.198 2.078-.296 2.412-.296.13 0 .22.012.269.037.105.055.192.185.26.39.068.203.102.407.102.612 0 .13-.058.27-.172.422-.114.151-.31.372-.589.663a5.524 5.524 0 0 0-.826 1.15c-.222.415-.334.727-.334.937 0 .291.18.436.538.436.378 0 1.033-.383 1.967-1.15v.622c-.513.538-.937.961-1.27 1.27-.335.31-.644.556-.929.738-.284.183-.538.274-.76.274-.26 0-.477-.12-.65-.357-.173-.238-.26-.583-.26-1.035 0-.266.069-.569.205-.909.136-.34.335-.71.598-1.109.263-.398.558-.796.886-1.192-.173.037-.368.076-.584.116l-.687.126a57.19 57.19 0 0 0-.557.102c-.383.767-.94 1.462-1.67 2.087zm9.445-4.861a.674.674 0 0 1-.44-.177.558.558 0 0 1-.21-.445c0-.272.13-.575.39-.91.26-.333.529-.5.807-.5.186 0 .34.057.464.172.124.114.186.28.186.496 0 .266-.127.56-.38.881-.254.322-.527.483-.817.483zm.63 4.147v.677c-.6.773-1.159 1.356-1.679 1.749-.52.392-.961.589-1.326.589-.507 0-.885-.266-1.132-.798a4.084 4.084 0 0 1-.371-1.744c0-.241.025-.472.074-.691.05-.22.108-.4.176-.543.068-.142.195-.365.38-.668.879-1.367 1.683-2.05 2.413-2.05.377 0 .566.145.566.436 0 .198-.122.507-.367.927-.244.421-.462.72-.654.9-.538.52-.889.882-1.053 1.086a1.081 1.081 0 0 0-.246.696c0 .222.084.408.25.556.168.149.384.223.65.223.291 0 .611-.107.96-.32.35-.214.803-.555 1.36-1.025zm-.194.779v-.65a36.433 36.433 0 0 0 2.24-2.653c.628-.829 1.124-1.487 1.49-1.976.364-.488.686-.833.964-1.034.278-.201.628-.302 1.048-.302.21 0 .316.08.316.241 0 .13-.085.322-.255.576-.17.253-.388.513-.654.779-.353.346-.698.78-1.035 1.303a26.914 26.914 0 0 0-1.145 2c.334-.26.719-.568 1.155-.923.436-.356.791-.634 1.066-.835.276-.201.548-.36.817-.478.269-.118.54-.176.812-.176.173 0 .286.03.338.092.053.062.08.183.08.362 0 .47-.115.93-.344 1.378-.229.448-.557.914-.984 1.396a20.984 20.984 0 0 1-1.577 1.577c.217.08.44.12.668.12.718 0 1.68-.547 2.886-1.641v.668c-.47.42-.93.816-1.378 1.187-.449.371-.87.668-1.266.89-.396.223-.761.335-1.095.335-.124 0-.255-.014-.395-.042a3.021 3.021 0 0 1-.385-.102 9.962 9.962 0 0 1-.454-.172 6.352 6.352 0 0 0-.427-.157c-.198.05-.31.074-.334.074-.216 0-.47-.087-.76-.26a16.49 16.49 0 0 0-.673 1.535c-.244.628-.45 1.128-.617 1.499-.167.37-.39.726-.668 1.067-.155.154-.263.232-.325.232-.266 0-.399-.235-.399-.705 0-.409.082-.834.246-1.276.164-.442.365-.861.603-1.257.238-.396.5-.796.784-1.202.285-.405.486-.706.603-.904.977-1.682 1.738-3.114 2.282-4.296-1.422 1.732-2.498 2.975-3.228 3.73zm3.766.455c.613-.644 1.069-1.191 1.369-1.643.3-.451.45-.797.45-1.039 0-.228-.115-.343-.343-.343-.31 0-.744.255-1.304.765s-1.136 1.199-1.73 2.065c.458-.05.764-.067.918-.051.155.015.368.097.64.246zm7.311-6.05h.399c.328-.587.625-1.003.89-1.247.266-.244.57-.367.91-.367.34 0 .51.078.51.232 0 .075-.133.276-.399.603a8.022 8.022 0 0 0-.603.826l.561.065c.164.019.293.034.385.046a14.6 14.6 0 0 1-1.326 2.014 60.175 60.175 0 0 1-.794-.06l-.44-.033a25.688 25.688 0 0 0-.84 1.442 8.063 8.063 0 0 0-.52 1.165c-.12.352-.18.686-.18 1.002 0 .426.17.64.51.64.235 0 .543-.125.923-.376.38-.25.89-.635 1.526-1.155v.622c-1.67 1.812-2.904 2.718-3.701 2.718a.814.814 0 0 1-.673-.325c-.17-.216-.255-.495-.255-.835 0-.229.048-.5.144-.816.095-.316.267-.792.514-1.429a9.367 9.367 0 0 0-.245.218 34.923 34.923 0 0 1-.645.58v-.64c.65-.544 1.435-1.5 2.356-2.867a9.287 9.287 0 0 0-.547-.018c-.365 0-.637.024-.816.074a2.837 2.837 0 0 0-.21.06.52.52 0 0 1-.134.033c-.024 0-.037-.019-.037-.056 0-.204.127-.51.38-.919.205-.346.398-.603.58-.77.183-.167.405-.28.668-.338.263-.059.633-.088 1.109-.088z" fill="#000" fill-rule="nonzero"></path></svg>