<svg width="30" height="13" xmlns="http://www.w3.org/2000/svg"><path d="M2.095 8.528c.034.61.178 1.106.432 1.487.483.713 1.335 1.07 2.556 1.07.547 0 1.045-.079 1.494-.235.87-.303 1.304-.845 1.304-1.626 0-.586-.183-1.003-.55-1.252-.37-.244-.952-.457-1.743-.638l-1.457-.33c-.952-.214-1.626-.45-2.022-.71-.683-.449-1.025-1.12-1.025-2.014 0-.967.334-1.76 1.003-2.38.67-.62 1.617-.93 2.842-.93 1.128 0 2.086.272 2.875.816.789.545 1.183 1.415 1.183 2.611h-1.37c-.073-.576-.23-1.018-.469-1.325-.444-.562-1.198-.843-2.263-.843-.86 0-1.477.181-1.853.542-.376.362-.564.782-.564 1.26 0 .528.22.913.66 1.157.288.157.94.352 1.955.586l1.509.345c.727.166 1.289.393 1.684.68.684.504 1.026 1.234 1.026 2.19 0 1.192-.434 2.044-1.3 2.557-.867.513-1.874.769-3.022.769-1.337 0-2.385-.342-3.142-1.025C1.082 10.61.71 9.69.725 8.528h1.37zm8.913-7.287h1.319V12h-1.319V1.24zm4.307 8.672c0 .38.14.68.417.9.279.22.608.33.99.33.463 0 .912-.107 1.347-.322.732-.357 1.098-.94 1.098-1.75V8.007a2.255 2.255 0 0 1-.622.257 5.305 5.305 0 0 1-.747.146L17 8.514c-.479.063-.838.163-1.077.3-.405.23-.608.596-.608 1.099zm3.193-2.666c.303-.04.506-.166.608-.381.059-.117.088-.286.088-.506 0-.449-.16-.775-.48-.977-.32-.203-.777-.304-1.373-.304-.688 0-1.177.185-1.465.556-.16.205-.266.51-.315.916h-1.23c.024-.967.338-1.64.941-2.018.603-.378 1.302-.568 2.098-.568.923 0 1.673.176 2.249.528.571.351.857.898.857 1.64v4.52c0 .136.028.246.084.329.056.083.175.124.355.124.059 0 .125-.003.198-.01.073-.008.151-.019.234-.034v.975a3.672 3.672 0 0 1-.468.11 3.425 3.425 0 0 1-.44.021c-.454 0-.783-.16-.989-.483-.107-.17-.183-.413-.227-.725-.268.352-.654.657-1.157.915a3.58 3.58 0 0 1-1.662.389c-.728 0-1.322-.221-1.784-.663-.461-.442-.692-.995-.692-1.66 0-.727.227-1.29.681-1.691.454-.4 1.05-.647 1.787-.74l2.102-.263zm4.036-6.043h1.282v3.904a2.923 2.923 0 0 1 1.032-.86c.4-.198.835-.297 1.304-.297.977 0 1.769.335 2.377 1.007.608.671.912 1.661.912 2.97 0 1.24-.3 2.27-.901 3.09-.6.82-1.433 1.231-2.498 1.231-.595 0-1.098-.144-1.509-.432-.244-.171-.505-.444-.783-.82V12h-1.216V1.204zm3.428 9.88c.713 0 1.246-.283 1.6-.85.354-.566.531-1.313.531-2.24 0-.826-.177-1.51-.531-2.051-.354-.542-.875-.813-1.564-.813-.6 0-1.126.222-1.578.666-.452.445-.678 1.177-.678 2.198 0 .737.093 1.335.279 1.794.346.864.993 1.296 1.94 1.296z" fill="#000" fill-rule="nonzero"></path></svg>