<svg width="74px" height="16px" viewBox="0 0 74 16" version="1.1" xmlns="http://www.w3.org/2000/svg"><g id="Page-1" stroke="none" stroke-width="1" fill="none" fill-rule="evenodd"><g id="logojoy-fonts" transform="translate(-271.000000, -230.000000)" fill="#000000" fill-rule="nonzero"><g id="Group-5" transform="translate(-6.000000, 0.000000)"><g id="Group-Copy-2" transform="translate(107.000000, 216.000000)"><g id="Group-2-Copy" transform="translate(170.000000, 14.000000)"><path d="M4.48,12.112 C5.544,12.112 6.398,11.818 7.042,11.216 C7.686,10.614 8.008,9.886 8.008,9.046 C8.008,8.36 7.756,7.744 7.252,7.198 C6.706,6.596 5.782,6.134 4.494,5.812 C2.828,5.378 2.156,4.846 2.156,3.852 C2.156,3.306 2.38,2.858 2.828,2.508 C3.276,2.158 3.808,1.99 4.424,1.99 C5.628,1.99 6.468,2.578 6.93,3.74 L7.91,3.194 C7.392,1.808 6.188,0.912 4.452,0.912 C3.5,0.912 2.688,1.192 2.016,1.738 C1.344,2.284 1.008,2.998 1.008,3.908 C1.008,5.434 2.044,6.4 4.284,6.946 C5.964,7.352 6.832,8.01 6.832,9.13 C6.832,9.69 6.608,10.152 6.146,10.502 C5.698,10.852 5.138,11.034 4.48,11.034 C3.066,11.034 2.24,10.278 1.68,8.92 L0.686,9.438 C1.358,11.216 2.618,12.112 4.48,12.112 Z M12.768,12.14 C13.902,12.14 14.756,11.636 15.33,10.628 L15.33,12 L16.394,12 L16.394,4.524 L15.316,4.524 L15.316,8.794 C15.316,9.466 15.106,10.026 14.686,10.474 C14.266,10.922 13.734,11.146 13.09,11.146 C11.746,11.146 11.018,10.264 11.018,8.878 L11.018,4.524 L9.94,4.524 L9.94,9.144 C9.94,10.936 10.976,12.14 12.768,12.14 Z M22.078,15.738 C24.388,15.738 25.83,14.394 25.83,12.028 L25.83,4.524 L24.752,4.524 L24.752,6.092 C23.996,4.958 23.03,4.398 21.84,4.398 C20.818,4.398 19.978,4.776 19.32,5.546 C18.662,6.316 18.34,7.198 18.34,8.22 C18.34,9.27 18.662,10.18 19.306,10.922 C19.95,11.664 20.79,12.028 21.84,12.028 C23.086,12.028 24.052,11.468 24.738,10.334 L24.738,12.07 C24.738,13.904 23.632,14.786 22.064,14.786 C21.238,14.786 20.58,14.534 20.146,14.086 C19.712,13.638 19.502,13.33 19.264,12.812 L18.382,13.33 C19.096,14.94 20.328,15.738 22.078,15.738 Z M22.064,11.076 C21.266,11.076 20.636,10.81 20.16,10.264 C19.698,9.718 19.46,9.046 19.46,8.248 C19.46,7.422 19.698,6.736 20.16,6.19 C20.622,5.644 21.266,5.364 22.064,5.364 C22.82,5.364 23.45,5.644 23.968,6.218 C24.486,6.792 24.752,7.45 24.752,8.206 C24.752,8.99 24.5,9.662 23.982,10.236 C23.478,10.796 22.834,11.076 22.064,11.076 Z M31.5,15.738 C33.81,15.738 35.252,14.394 35.252,12.028 L35.252,4.524 L34.174,4.524 L34.174,6.092 C33.418,4.958 32.452,4.398 31.262,4.398 C30.24,4.398 29.4,4.776 28.742,5.546 C28.084,6.316 27.762,7.198 27.762,8.22 C27.762,9.27 28.084,10.18 28.728,10.922 C29.372,11.664 30.212,12.028 31.262,12.028 C32.508,12.028 33.474,11.468 34.16,10.334 L34.16,12.07 C34.16,13.904 33.054,14.786 31.486,14.786 C30.66,14.786 30.002,14.534 29.568,14.086 C29.134,13.638 28.924,13.33 28.686,12.812 L27.804,13.33 C28.518,14.94 29.75,15.738 31.5,15.738 Z M31.486,11.076 C30.688,11.076 30.058,10.81 29.582,10.264 C29.12,9.718 28.882,9.046 28.882,8.248 C28.882,7.422 29.12,6.736 29.582,6.19 C30.044,5.644 30.688,5.364 31.486,5.364 C32.242,5.364 32.872,5.644 33.39,6.218 C33.908,6.792 34.174,7.45 34.174,8.206 C34.174,8.99 33.922,9.662 33.404,10.236 C32.9,10.796 32.256,11.076 31.486,11.076 Z M40.964,12.126 C42.308,12.126 43.498,11.426 44.128,10.194 L43.316,9.662 C42.882,10.558 42,11.16 40.95,11.16 C40.222,11.16 39.606,10.922 39.102,10.432 C38.598,9.942 38.318,9.326 38.276,8.598 L44.324,8.598 C44.338,8.528 44.338,8.402 44.338,8.234 C44.338,7.1 44.03,6.19 43.414,5.476 C42.798,4.762 41.93,4.398 40.81,4.398 C39.788,4.398 38.92,4.776 38.22,5.546 C37.52,6.316 37.17,7.212 37.17,8.248 C37.17,9.326 37.534,10.25 38.262,11.006 C38.99,11.748 39.886,12.126 40.964,12.126 Z M43.232,7.674 L38.29,7.674 C38.388,7.03 38.668,6.484 39.144,6.036 C39.62,5.574 40.18,5.35 40.81,5.35 C42.21,5.35 43.078,6.274 43.232,7.674 Z M48.482,12.126 C49.252,12.126 49.896,11.916 50.4,11.496 C50.918,11.062 51.17,10.53 51.17,9.872 C51.17,9.41 50.988,8.99 50.638,8.64 C50.232,8.22 49.574,7.912 48.678,7.716 C47.292,7.422 46.928,7.156 46.928,6.54 C46.928,6.218 47.082,5.952 47.376,5.714 C47.67,5.476 48.034,5.364 48.44,5.364 C49.21,5.364 49.798,5.784 50.19,6.624 L51.086,6.134 C50.582,4.972 49.7,4.398 48.44,4.398 C47.768,4.398 47.166,4.608 46.634,5.028 C46.102,5.448 45.836,5.98 45.836,6.624 C45.836,7.058 45.976,7.422 46.242,7.744 C46.648,8.206 47.166,8.444 48.188,8.668 C49.546,8.99 50.064,9.312 50.064,9.942 C50.064,10.684 49.322,11.16 48.468,11.16 C47.586,11.16 46.914,10.67 46.452,9.704 L45.556,10.194 C46.13,11.482 47.11,12.126 48.482,12.126 Z M55.734,12.056 C56.056,12.056 56.35,12.014 56.588,11.944 L56.588,11.034 C56.434,11.076 56.21,11.09 55.916,11.09 C55.104,11.09 54.698,10.74 54.698,10.04 L54.698,5.49 L56.588,5.49 L56.588,4.524 L54.698,4.524 L54.698,2.368 L53.62,2.368 L53.62,4.524 L52.234,4.524 L52.234,5.49 L53.62,5.49 L53.62,10.068 C53.62,11.398 54.32,12.056 55.734,12.056 Z M61.684,12.126 C63.028,12.126 64.218,11.426 64.848,10.194 L64.036,9.662 C63.602,10.558 62.72,11.16 61.67,11.16 C60.942,11.16 60.326,10.922 59.822,10.432 C59.318,9.942 59.038,9.326 58.996,8.598 L65.044,8.598 C65.058,8.528 65.058,8.402 65.058,8.234 C65.058,7.1 64.75,6.19 64.134,5.476 C63.518,4.762 62.65,4.398 61.53,4.398 C60.508,4.398 59.64,4.776 58.94,5.546 C58.24,6.316 57.89,7.212 57.89,8.248 C57.89,9.326 58.254,10.25 58.982,11.006 C59.71,11.748 60.606,12.126 61.684,12.126 Z M63.952,7.674 L59.01,7.674 C59.108,7.03 59.388,6.484 59.864,6.036 C60.34,5.574 60.9,5.35 61.53,5.35 C62.93,5.35 63.798,6.274 63.952,7.674 Z M69.902,12.112 C71.148,12.112 72.128,11.538 72.814,10.404 L72.814,12 L73.878,12 L73.878,0.604 L72.8,0.604 L72.8,6.092 C72.03,4.958 71.064,4.398 69.902,4.398 C68.88,4.398 68.04,4.79 67.382,5.56 C66.724,6.33 66.402,7.226 66.402,8.248 C66.402,9.312 66.724,10.222 67.368,10.978 C68.026,11.734 68.866,12.112 69.902,12.112 Z M70.126,11.146 C69.328,11.146 68.698,10.866 68.222,10.32 C67.746,9.76 67.508,9.074 67.508,8.276 C67.508,7.45 67.746,6.75 68.222,6.204 C68.698,5.644 69.328,5.364 70.126,5.364 C70.882,5.364 71.512,5.658 72.03,6.232 C72.548,6.806 72.814,7.464 72.814,8.234 C72.814,9.032 72.562,9.718 72.044,10.292 C71.54,10.866 70.896,11.146 70.126,11.146 Z" id="suggested-gordita"></path></g></g></g></g></g></svg>